<svg width="12.000000" height="12.000000" viewBox="0 0 12 12" fill="none" xmlns="http://www.w3.org/2000/svg" xmlns:xlink="http://www.w3.org/1999/xlink">
	<desc>
			Created with Pixso.
	</desc>
	<defs>
		<clipPath id="clip1_560">
			<rect id="calendar (27) 1" rx="0.000000" width="11.000000" height="11.000000" transform="translate(0.500000 0.500000)" fill="white" fill-opacity="0"/>
		</clipPath>
	</defs>
	<rect id="calendar (27) 1" rx="0.000000" width="11.000000" height="11.000000" transform="translate(0.500000 0.500000)" fill="#FFFFFF" fill-opacity="0"/>
	<g clip-path="url(#clip1_560)">
		<path id="Vector" d="M11.49 1.08L9.68 1.08L9.68 0.52C9.68 0.24 9.45 0.01 9.17 0.01C8.89 0.01 8.66 0.24 8.66 0.52L8.66 1.08L3.31 1.08L3.31 0.52C3.31 0.24 3.08 0.01 2.8 0.01C2.52 0.01 2.29 0.24 2.29 0.52L2.29 1.08L0.5 1.08C0.22 1.08 0 1.31 0 1.59L0 11.47C0 11.75 0.22 11.98 0.5 11.98L11.46 11.98C11.74 11.98 11.97 11.75 12 11.47L12 1.59C12 1.31 11.77 1.08 11.49 1.08ZM10.98 10.99L0.99 10.99L0.99 2.1L2.29 2.1L2.29 2.48C2.29 2.76 2.52 2.99 2.8 2.99C3.05 2.99 3.28 2.78 3.31 2.5L3.31 2.1L8.66 2.1L8.66 2.48C8.66 2.76 8.89 2.99 9.17 2.99C9.45 2.99 9.68 2.78 9.68 2.5L9.68 2.1L10.98 2.1L10.98 10.99L10.98 10.99Z" fill="#2B2B2B" fill-opacity="1.000000" fill-rule="nonzero"/>
	</g>
</svg>
