<svg width="12.000000" height="12.000000" viewBox="0 0 12 12" fill="none" xmlns="http://www.w3.org/2000/svg" xmlns:xlink="http://www.w3.org/1999/xlink">
	<desc>
			Created with Pixso.
	</desc>
	<defs>
		<clipPath id="clip1_566">
			<rect id="suitcase (3) 1" rx="0.000000" width="11.000000" height="11.000000" transform="translate(0.500000 0.500000)" fill="white" fill-opacity="0"/>
		</clipPath>
	</defs>
	<rect id="suitcase (3) 1" rx="0.000000" width="11.000000" height="11.000000" transform="translate(0.500000 0.500000)" fill="#FFFFFF" fill-opacity="0"/>
	<g clip-path="url(#clip1_566)">
		<path id="Vector" d="M11.53 2.66L9.28 2.66L9.28 1.35C9.28 1.09 9.07 0.88 8.81 0.88L3.18 0.88C2.92 0.88 2.71 1.09 2.71 1.35L2.71 2.66L0.46 2.66C0.21 2.66 0 2.87 0 3.13L0 10.64C0 10.9 0.21 11.11 0.46 11.11L11.53 11.11C11.78 11.11 12 10.9 12 10.64C12 6.49 12 3.34 12 3.13C12 2.87 11.78 2.66 11.53 2.66ZM3.65 1.82L8.34 1.82L8.34 2.66L3.65 2.66L3.65 1.82ZM0.93 3.6L11.06 3.6L11.06 4.67L6 6.39L0.93 4.67L0.93 3.6ZM0.93 10.17L0.93 5.66L5.84 7.33C5.94 7.36 6.05 7.36 6.15 7.33L11.06 5.66L11.06 10.17L0.93 10.17Z" fill="#2B2B2B" fill-opacity="1.000000" fill-rule="nonzero"/>
	</g>
</svg>
