<svg width="17.000000" height="17.000000" viewBox="0 0 17 17" fill="none" xmlns="http://www.w3.org/2000/svg" xmlns:xlink="http://www.w3.org/1999/xlink">
	<desc>
			Created with Pixso.
	</desc>
	<defs>
		<clipPath id="clip1_555">
			<rect id="clock (13) 1" rx="0.000000" width="16.000000" height="16.000000" transform="translate(0.500000 0.500000)" fill="white" fill-opacity="0"/>
		</clipPath>
	</defs>
	<rect id="clock (13) 1" rx="0.000000" width="16.000000" height="16.000000" transform="translate(0.500000 0.500000)" fill="#FFFFFF" fill-opacity="0"/>
	<g clip-path="url(#clip1_555)">
		<path id="Vector" d="M8.5 0C3.81 0 0 3.81 0 8.49C0 13.18 3.81 17 8.5 17C13.18 17 17 13.18 17 8.49C17 3.81 13.18 0 8.5 0ZM8.5 15.78C4.48 15.78 1.21 12.51 1.21 8.49C1.21 4.48 4.48 1.21 8.5 1.21C12.51 1.21 15.78 4.48 15.78 8.49C15.78 12.51 12.51 15.78 8.5 15.78Z" fill="#2B2B2B" fill-opacity="1.000000" fill-rule="nonzero"/>
		<path id="Vector" d="M12.87 8.35L8.87 8.35L8.87 3.99C8.87 3.65 8.6 3.38 8.26 3.38C7.93 3.38 7.65 3.65 7.65 3.99L7.65 8.96C7.65 9.3 7.93 9.57 8.26 9.57L12.87 9.57C13.2 9.57 13.48 9.3 13.48 8.96C13.48 8.63 13.2 8.35 12.87 8.35Z" fill="#2B2B2B" fill-opacity="1.000000" fill-rule="nonzero"/>
	</g>
</svg>
