<svg width="4.699951" height="8.000000" viewBox="0 0 4.69995 8" fill="none" xmlns="http://www.w3.org/2000/svg" xmlns:xlink="http://www.w3.org/1999/xlink">
	<desc>
			Created with Pixso.
	</desc>
	<defs/>
	<path id="Vector" d="M4.57 3.68L1.01 0.12C0.92 0.04 0.81 0 0.7 0C0.58 0 0.47 0.04 0.39 0.12L0.13 0.38C-0.04 0.56 -0.04 0.83 0.13 1L3.12 3.99L0.12 6.99C0.04 7.07 0 7.18 0 7.3C0 7.41 0.04 7.52 0.12 7.61L0.38 7.87C0.47 7.95 0.58 8 0.69 8C0.81 8 0.92 7.95 1 7.87L4.57 4.3C4.65 4.22 4.7 4.11 4.69 3.99C4.7 3.88 4.65 3.77 4.57 3.68Z" fill="#C4C4C4" fill-opacity="1.000000" fill-rule="nonzero"/>
</svg>
