<svg width="12.000000" height="12.000000" viewBox="0 0 12 12" fill="none" xmlns="http://www.w3.org/2000/svg" xmlns:xlink="http://www.w3.org/1999/xlink">
	<desc>
			Created with Pixso.
	</desc>
	<defs>
		<clipPath id="clip1_564">
			<rect id="diploma (1) 1" rx="0.000000" width="11.000000" height="11.000000" transform="translate(0.500000 0.500000)" fill="white" fill-opacity="0"/>
		</clipPath>
	</defs>
	<rect id="diploma (1) 1" rx="0.000000" width="11.000000" height="11.000000" transform="translate(0.500000 0.500000)" fill="#FFFFFF" fill-opacity="0"/>
	<g clip-path="url(#clip1_564)">
		<path id="Vector" d="M11.53 1.78C11.35 1.78 2.17 1.78 0.46 1.78C0.2 1.78 0 1.99 0 2.25L0 9.75C0 10 0.2 10.21 0.46 10.21L11.53 10.21C11.79 10.21 12 10 12 9.75L12 2.25C12 1.99 11.79 1.78 11.53 1.78ZM2.88 2.71L4.75 2.71L4.75 4.53L4.12 3.99C3.94 3.85 3.69 3.85 3.52 3.99L2.88 4.53L2.88 2.71ZM11.06 9.28L0.93 9.28L0.93 2.71L1.94 2.71L1.94 5.53C1.94 5.92 2.4 6.14 2.71 5.89L3.82 4.96L4.92 5.89C5.22 6.14 5.69 5.93 5.69 5.53L5.69 2.71L11.06 2.71L11.06 9.28ZM10.05 7.4C10.05 7.66 9.84 7.87 9.58 7.87L2.41 7.87C2.15 7.87 1.94 7.66 1.94 7.4C1.94 7.14 2.15 6.93 2.41 6.93L9.58 6.93C9.84 6.93 10.05 7.14 10.05 7.4ZM6.58 5.53C6.58 5.27 6.79 5.06 7.05 5.06L9.58 5.06C9.84 5.06 10.05 5.27 10.05 5.53C10.05 5.79 9.84 6 9.58 6L7.05 6C6.79 6 6.58 5.79 6.58 5.53Z" fill="#2B2B2B" fill-opacity="1.000000" fill-rule="nonzero"/>
	</g>
</svg>
