<svg width="14.000000" height="14.000000" viewBox="0 0 14 14" fill="none" xmlns="http://www.w3.org/2000/svg" xmlns:xlink="http://www.w3.org/1999/xlink">
	<desc>
			Created with Pixso.
	</desc>
	<defs>
		<clipPath id="clip1_829">
			<rect id="facebook-social-logo (7) 1" rx="0.000000" width="13.000000" height="13.000000" transform="translate(0.500000 0.500000)" fill="white" fill-opacity="0"/>
		</clipPath>
	</defs>
	<rect id="facebook-social-logo (7) 1" rx="0.000000" width="13.000000" height="13.000000" transform="translate(0.500000 0.500000)" fill="#FFFFFF" fill-opacity="0"/>
	<g clip-path="url(#clip1_829)">
		<path id="Vector" d="M5 2.7C5 2.61 5.01 2.42 5.04 2.13C5.06 1.84 5.17 1.54 5.37 1.22C5.56 0.91 5.88 0.62 6.31 0.37C6.75 0.12 7.38 0 8.2 0L10.52 0L10.52 2.52L8.82 2.52C8.65 2.52 8.5 2.58 8.35 2.71C8.21 2.83 8.14 2.95 8.14 3.06L8.14 4.63L10.51 4.63C10.49 4.93 10.46 5.23 10.43 5.52L10.34 6.28C10.3 6.54 10.26 6.78 10.22 7L8.13 7L8.13 14L5 14L5 7L3.47 7L3.47 4.63L5 4.63L5 2.7Z" fill="#FFFFFF" fill-opacity="1.000000" fill-rule="nonzero"/>
	</g>
</svg>
