<svg width="12.000000" height="12.000000" viewBox="0 0 12 12" fill="none" xmlns="http://www.w3.org/2000/svg" xmlns:xlink="http://www.w3.org/1999/xlink">
	<desc>
			Created with Pixso.
	</desc>
	<defs>
		<clipPath id="clip1_549">
			<rect id="shuffle 1" rx="0.000000" width="11.000000" height="11.000000" transform="translate(0.500000 0.500000)" fill="white" fill-opacity="0"/>
		</clipPath>
	</defs>
	<rect id="shuffle 1" rx="0.000000" width="11.000000" height="11.000000" transform="translate(0.500000 0.500000)" fill="#FFFFFF" fill-opacity="0"/>
	<g clip-path="url(#clip1_549)">
		<path id="Vector" d="M4.1 4.32L4.66 5.44L5.22 4.32L5 3.88C4.79 3.46 4.47 3.11 4.07 2.87C3.68 2.62 3.22 2.49 2.76 2.5L0 2.5L0 3.5L2.76 3.5C3.04 3.49 3.31 3.57 3.55 3.72C3.79 3.86 3.98 4.07 4.1 4.32Z" fill="#8C8C8C" fill-opacity="1.000000" fill-rule="nonzero"/>
		<path id="Vector" d="M10.35 7.14L9.64 7.85L10.29 8.5L8.23 8.5C7.95 8.5 7.68 8.42 7.44 8.27C7.2 8.13 7.01 7.92 6.89 7.67L6.33 6.55L5.77 7.67L5.99 8.11C6.2 8.53 6.52 8.88 6.92 9.12C7.31 9.37 7.77 9.5 8.23 9.5L10.29 9.5L9.64 10.14L10.35 10.85L11.85 9.35C11.89 9.3 11.93 9.25 11.96 9.19C11.98 9.13 11.99 9.06 11.99 9C11.99 8.93 11.98 8.86 11.96 8.8C11.93 8.74 11.89 8.69 11.85 8.64L10.35 7.14Z" fill="#8C8C8C" fill-opacity="1.000000" fill-rule="nonzero"/>
		<path id="Vector" d="M11.85 2.64L10.35 1.14L9.64 1.85L10.29 2.5L8.23 2.5C7.77 2.49 7.31 2.62 6.92 2.87C6.52 3.11 6.2 3.46 6 3.88L4.1 7.67C3.98 7.92 3.79 8.13 3.55 8.27C3.31 8.42 3.04 8.5 2.76 8.5L0 8.5L0 9.5L2.76 9.5C3.22 9.5 3.68 9.37 4.07 9.12C4.47 8.88 4.79 8.53 5 8.11L6.89 4.32C7.01 4.07 7.2 3.86 7.44 3.72C7.68 3.57 7.95 3.49 8.23 3.5L10.29 3.5L9.64 4.14L10.35 4.85L11.85 3.35C11.9 3.3 11.93 3.25 11.96 3.19C11.98 3.13 12 3.06 12 3C12 2.93 11.98 2.86 11.96 2.8C11.93 2.74 11.9 2.69 11.85 2.64Z" fill="#8C8C8C" fill-opacity="1.000000" fill-rule="nonzero"/>
	</g>
</svg>
