<svg width="14.000000" height="14.000000" viewBox="0 0 14 14" fill="none" xmlns="http://www.w3.org/2000/svg" xmlns:xlink="http://www.w3.org/1999/xlink">
	<desc>
			Created with Pixso.
	</desc>
	<defs>
		<clipPath id="clip1_815">
			<rect id="telegram (14) 1" rx="0.000000" width="13.000000" height="13.000000" transform="translate(0.500000 0.500000)" fill="white" fill-opacity="0"/>
		</clipPath>
	</defs>
	<rect id="telegram (14) 1" rx="0.000000" width="13.000000" height="13.000000" transform="translate(0.500000 0.500000)" fill="#FFFFFF" fill-opacity="0"/>
	<g clip-path="url(#clip1_815)">
		<path id="Vector" d="M5.49 8.85L5.26 12.11C5.59 12.11 5.73 11.97 5.9 11.79L7.46 10.31L10.68 12.67C11.27 13 11.68 12.82 11.84 12.12L13.95 2.22L13.95 2.22C14.14 1.35 13.64 1.01 13.06 1.22L0.64 5.98C-0.2 6.31 -0.19 6.78 0.5 6.99L3.68 7.98L11.05 3.37C11.4 3.14 11.71 3.26 11.45 3.49L5.49 8.85Z" fill="#FFFFFF" fill-opacity="1.000000" fill-rule="nonzero"/>
	</g>
</svg>
