<svg width="14.000000" height="14.000000" viewBox="0 0 14 14" fill="none" xmlns="http://www.w3.org/2000/svg" xmlns:xlink="http://www.w3.org/1999/xlink">
	<desc>
			Created with Pixso.
	</desc>
	<defs>
		<clipPath id="clip1_811">
			<rect id="vk (17) 1" rx="0.000000" width="13.000000" height="13.000000" transform="translate(0.500000 0.500000)" fill="white" fill-opacity="0"/>
		</clipPath>
	</defs>
	<rect id="vk (17) 1" rx="0.000000" width="13.000000" height="13.000000" transform="translate(0.500000 0.500000)" fill="#FFFFFF" fill-opacity="0"/>
	<g clip-path="url(#clip1_811)">
		<path id="Vector" d="M13.87 10.13C13.83 10.06 13.6 9.56 12.48 8.52C11.31 7.43 11.46 7.61 12.88 5.72C13.74 4.58 14.08 3.88 13.97 3.58C13.87 3.29 13.24 3.37 13.24 3.37L11.13 3.38C11.13 3.38 10.98 3.36 10.86 3.43C10.75 3.5 10.68 3.65 10.68 3.65C10.68 3.65 10.34 4.54 9.9 5.3C8.96 6.89 8.59 6.97 8.43 6.87C8.08 6.64 8.17 5.95 8.17 5.45C8.17 3.91 8.4 3.27 7.71 3.1C7.48 3.05 7.31 3.01 6.73 3C5.98 2.99 5.34 3.01 4.98 3.18C4.74 3.3 4.56 3.56 4.67 3.58C4.81 3.59 5.12 3.66 5.29 3.89C5.51 4.18 5.5 4.84 5.5 4.84C5.5 4.84 5.62 6.66 5.21 6.88C4.93 7.04 4.54 6.72 3.7 5.28C3.27 4.54 2.95 3.72 2.95 3.72C2.95 3.72 2.89 3.57 2.78 3.48C2.64 3.39 2.45 3.35 2.45 3.35L0.45 3.37C0.45 3.37 0.15 3.38 0.04 3.51C-0.06 3.62 0.03 3.86 0.03 3.86C0.03 3.86 1.6 7.53 3.37 9.37C5 11.07 6.85 10.96 6.85 10.96L7.68 10.96C7.68 10.96 7.93 10.93 8.06 10.79C8.18 10.66 8.18 10.42 8.18 10.42C8.18 10.42 8.16 9.3 8.68 9.13C9.2 8.97 9.86 10.22 10.56 10.7C11.08 11.06 11.49 10.98 11.49 10.98L13.36 10.96C13.36 10.96 14.33 10.89 13.87 10.13Z" fill="#FFFFFF" fill-opacity="1.000000" fill-rule="nonzero"/>
	</g>
</svg>
