<svg width="14.000000" height="14.000000" viewBox="0 0 14 14" fill="none" xmlns="http://www.w3.org/2000/svg" xmlns:xlink="http://www.w3.org/1999/xlink">
	<desc>
			Created with Pixso.
	</desc>
	<defs>
		<clipPath id="clip1_827">
			<rect id="youtube (6) 1" rx="0.000000" width="13.000000" height="13.000000" transform="translate(0.500000 0.500000)" fill="white" fill-opacity="0"/>
		</clipPath>
	</defs>
	<rect id="youtube (6) 1" rx="0.000000" width="13.000000" height="13.000000" transform="translate(0.500000 0.500000)" fill="#FFFFFF" fill-opacity="0"/>
	<g clip-path="url(#clip1_827)">
		<path id="Vector" d="M13.28 3.71C13.13 3.15 12.69 2.71 12.12 2.56C11.1 2.28 6.99 2.28 6.99 2.28C6.99 2.28 2.88 2.28 1.85 2.55C1.3 2.7 0.85 3.15 0.7 3.71C0.43 4.74 0.43 6.87 0.43 6.87C0.43 6.87 0.43 9.01 0.7 10.03C0.85 10.59 1.29 11.03 1.85 11.18C2.89 11.47 6.99 11.47 6.99 11.47C6.99 11.47 11.1 11.47 12.12 11.2C12.69 11.04 13.13 10.6 13.28 10.04C13.55 9.01 13.55 6.88 13.55 6.88C13.55 6.88 13.56 4.74 13.28 3.71ZM5.68 8.84L5.68 4.9L9.1 6.87L5.68 8.84Z" fill="#FFFFFF" fill-opacity="1.000000" fill-rule="nonzero"/>
	</g>
</svg>
